<svg xmlns="http://www.w3.org/2000/svg" width="180" height="180" viewBox="0 0 180 180">
  <defs>
    <linearGradient id="backgroundGradient" x1="0%" y1="0%" x2="100%" y2="100%">
      <stop offset="0%" style="stop-color:#1e293b;stop-opacity:1" />
      <stop offset="100%" style="stop-color:#0f172a;stop-opacity:1" />
    </linearGradient>
    <linearGradient id="nodeGradient" x1="0%" y1="0%" x2="100%" y2="100%">
      <stop offset="0%" style="stop-color:#3b82f6;stop-opacity:1" />
      <stop offset="100%" style="stop-color:#1d4ed8;stop-opacity:1" />
    </linearGradient>
    <linearGradient id="centerGradient" x1="0%" y1="0%" x2="100%" y2="100%">
      <stop offset="0%" style="stop-color:#60a5fa;stop-opacity:1" />
      <stop offset="100%" style="stop-color:#3b82f6;stop-opacity:1" />
    </linearGradient>
  </defs>

  <!-- Background with rounded corners for iOS -->
  <rect width="180" height="180" rx="32" ry="32" fill="url(#backgroundGradient)" />

  <!-- Central AI node (larger) -->
  <circle cx="90" cy="90" r="20" fill="url(#centerGradient)" stroke="#ffffff" stroke-width="2" opacity="0.9"/>

  <!-- Collaboration nodes positioned around the center -->
  <circle cx="50" cy="50" r="12" fill="url(#nodeGradient)" stroke="#ffffff" stroke-width="1.5" opacity="0.8"/>
  <circle cx="130" cy="50" r="12" fill="url(#nodeGradient)" stroke="#ffffff" stroke-width="1.5" opacity="0.8"/>
  <circle cx="50" cy="130" r="12" fill="url(#nodeGradient)" stroke="#ffffff" stroke-width="1.5" opacity="0.8"/>
  <circle cx="130" cy="130" r="12" fill="url(#nodeGradient)" stroke="#ffffff" stroke-width="1.5" opacity="0.8"/>

  <!-- Additional nodes for richer network -->
  <circle cx="90" cy="40" r="8" fill="url(#nodeGradient)" stroke="#ffffff" stroke-width="1" opacity="0.7"/>
  <circle cx="90" cy="140" r="8" fill="url(#nodeGradient)" stroke="#ffffff" stroke-width="1" opacity="0.7"/>
  <circle cx="40" cy="90" r="8" fill="url(#nodeGradient)" stroke="#ffffff" stroke-width="1" opacity="0.7"/>
  <circle cx="140" cy="90" r="8" fill="url(#nodeGradient)" stroke="#ffffff" stroke-width="1" opacity="0.7"/>

  <!-- Primary connection lines -->
  <line x1="90" y1="90" x2="50" y2="50" stroke="#60a5fa" stroke-width="3" opacity="0.8"/>
  <line x1="90" y1="90" x2="130" y2="50" stroke="#60a5fa" stroke-width="3" opacity="0.8"/>
  <line x1="90" y1="90" x2="50" y2="130" stroke="#60a5fa" stroke-width="3" opacity="0.8"/>
  <line x1="90" y1="90" x2="130" y2="130" stroke="#60a5fa" stroke-width="3" opacity="0.8"/>

  <!-- Secondary connections to additional nodes -->
  <line x1="90" y1="90" x2="90" y2="40" stroke="#3b82f6" stroke-width="2" opacity="0.6"/>
  <line x1="90" y1="90" x2="90" y2="140" stroke="#3b82f6" stroke-width="2" opacity="0.6"/>
  <line x1="90" y1="90" x2="40" y2="90" stroke="#3b82f6" stroke-width="2" opacity="0.6"/>
  <line x1="90" y1="90" x2="140" y2="90" stroke="#3b82f6" stroke-width="2" opacity="0.6"/>

  <!-- Cross network connections -->
  <line x1="50" y1="50" x2="130" y2="130" stroke="#1d4ed8" stroke-width="1.5" opacity="0.4"/>
  <line x1="130" y1="50" x2="50" y2="130" stroke="#1d4ed8" stroke-width="1.5" opacity="0.4"/>

  <!-- Outer network connections -->
  <line x1="50" y1="50" x2="90" y2="40" stroke="#3b82f6" stroke-width="1" opacity="0.3"/>
  <line x1="130" y1="50" x2="90" y2="40" stroke="#3b82f6" stroke-width="1" opacity="0.3"/>
  <line x1="50" y1="130" x2="90" y2="140" stroke="#3b82f6" stroke-width="1" opacity="0.3"/>
  <line x1="130" y1="130" x2="90" y2="140" stroke="#3b82f6" stroke-width="1" opacity="0.3"/>
</svg>